solid CATIA STL
  facet normal  9.999999e-001 -2.410919e-004  0.000000e+000
    outer loop
      vertex  6.969801e+001 -6.749869e+000  2.299550e+002
      vertex  6.969801e+001 -6.749869e+000  3.449450e+002
      vertex  6.969789e+001 -7.224547e+000  2.299550e+002
    endloop
  endfacet
  facet normal  9.999999e-001 -2.410919e-004  0.000000e+000
    outer loop
      vertex  6.969789e+001 -7.224547e+000  2.299550e+002
      vertex  6.969801e+001 -6.749869e+000  3.449450e+002
      vertex  6.969789e+001 -7.224547e+000  3.449450e+002
    endloop
  endfacet
  facet normal  1.092639e-001 -9.940128e-001  0.000000e+000
    outer loop
      vertex  6.969789e+001 -7.224547e+000  2.299550e+002
      vertex  6.969789e+001 -7.224547e+000  3.449450e+002
      vertex  4.444006e+001 -1.000094e+001  2.299550e+002
    endloop
  endfacet
  facet normal  1.092639e-001 -9.940128e-001  0.000000e+000
    outer loop
      vertex  4.444006e+001 -1.000094e+001  2.299550e+002
      vertex  6.969789e+001 -7.224547e+000  3.449450e+002
      vertex  4.444006e+001 -1.000094e+001  3.449450e+002
    endloop
  endfacet
  facet normal  9.583960e-002 -9.953967e-001  0.000000e+000
    outer loop
      vertex  4.444006e+001 -1.000094e+001  2.299550e+002
      vertex  4.444006e+001 -1.000094e+001  3.449450e+002
      vertex  1.914591e+001 -1.243633e+001  2.299550e+002
    endloop
  endfacet
  facet normal  9.583960e-002 -9.953967e-001  0.000000e+000
    outer loop
      vertex  1.914591e+001 -1.243633e+001  2.299550e+002
      vertex  4.444006e+001 -1.000094e+001  3.449450e+002
      vertex  1.914591e+001 -1.243633e+001  3.449450e+002
    endloop
  endfacet
  facet normal  9.583972e-002  9.953967e-001  0.000000e+000
    outer loop
      vertex  1.914614e+001 -1.546430e+000  2.299550e+002
      vertex  1.914614e+001 -1.546430e+000  3.449450e+002
      vertex  4.444017e+001 -3.981814e+000  2.299550e+002
    endloop
  endfacet
  facet normal  9.583972e-002  9.953967e-001  -0.000000e+000
    outer loop
      vertex  4.444017e+001 -3.981814e+000  2.299550e+002
      vertex  1.914614e+001 -1.546430e+000  3.449450e+002
      vertex  4.444017e+001 -3.981814e+000  3.449450e+002
    endloop
  endfacet
  facet normal  1.089397e-001  9.940484e-001  0.000000e+000
    outer loop
      vertex  4.444017e+001 -3.981814e+000  2.299550e+002
      vertex  4.444017e+001 -3.981814e+000  3.449450e+002
      vertex  6.969801e+001 -6.749869e+000  2.299550e+002
    endloop
  endfacet
  facet normal  1.089397e-001  9.940484e-001  -0.000000e+000
    outer loop
      vertex  6.969801e+001 -6.749869e+000  2.299550e+002
      vertex  4.444017e+001 -3.981814e+000  3.449450e+002
      vertex  6.969801e+001 -6.749869e+000  3.449450e+002
    endloop
  endfacet
  facet normal -7.621919e-002  9.970911e-001  0.000000e+000
    outer loop
      vertex  1.914614e+001 -1.546430e+000  3.449450e+002
      vertex  1.914614e+001 -1.546430e+000  2.299550e+002
      vertex  1.749827e+001 -1.672395e+000  3.449450e+002
    endloop
  endfacet
  facet normal -7.552040e-002  9.971443e-001  1.007223e-005
    outer loop
      vertex  1.749827e+001 -1.672395e+000  3.449450e+002
      vertex  1.914614e+001 -1.546430e+000  2.299550e+002
      vertex  1.750508e+001 -1.670718e+000  2.299550e+002
    endloop
  endfacet
  facet normal -3.970963e-001  9.177769e-001 -1.011152e-005
    outer loop
      vertex  1.749827e+001 -1.672395e+000  3.449450e+002
      vertex  1.750508e+001 -1.670718e+000  2.299550e+002
      vertex  1.598149e+001 -2.328665e+000  3.449450e+002
    endloop
  endfacet
  facet normal -3.951662e-001  9.186097e-001  2.022753e-005
    outer loop
      vertex  1.598149e+001 -2.328665e+000  3.449450e+002
      vertex  1.750508e+001 -1.670718e+000  2.299550e+002
      vertex  1.599327e+001 -2.321066e+000  2.299550e+002
    endloop
  endfacet
  facet normal -6.745896e-001  7.381930e-001 -2.031457e-005
    outer loop
      vertex  1.598149e+001 -2.328665e+000  3.449450e+002
      vertex  1.599327e+001 -2.321066e+000  2.299550e+002
      vertex  1.476150e+001 -3.443540e+000  3.449450e+002
    endloop
  endfacet
  facet normal -6.719989e-001  7.405521e-001  3.046573e-005
    outer loop
      vertex  1.476150e+001 -3.443540e+000  3.449450e+002
      vertex  1.599327e+001 -2.321066e+000  2.299550e+002
      vertex  1.477450e+001 -3.427015e+000  2.299550e+002
    endloop
  endfacet
  facet normal -8.783821e-001  4.779589e-001 -3.059916e-005
    outer loop
      vertex  1.476150e+001 -3.443540e+000  3.449450e+002
      vertex  1.477450e+001 -3.427015e+000  2.299550e+002
      vertex  1.397159e+001 -4.895218e+000  3.449450e+002
    endloop
  endfacet
  facet normal -8.760269e-001  4.822623e-001  4.079235e-005
    outer loop
      vertex  1.397159e+001 -4.895218e+000  3.449450e+002
      vertex  1.477450e+001 -3.427015e+000  2.299550e+002
      vertex  1.398081e+001 -4.868745e+000  2.299550e+002
    endloop
  endfacet
  facet normal -9.851657e-001  1.716060e-001 -3.947713e-005
    outer loop
      vertex  1.397159e+001 -4.895218e+000  3.449450e+002
      vertex  1.398081e+001 -4.868745e+000  2.299550e+002
      vertex  1.369807e+001 -6.490057e+000  2.380000e+002
    endloop
  endfacet
  facet normal -9.851452e-001  1.717235e-001 -1.508518e-005
    outer loop
      vertex  1.369807e+001 -6.490057e+000  2.380000e+002
      vertex  1.398081e+001 -4.868745e+000  2.299550e+002
      vertex  1.369819e+001 -6.490057e+000  2.299550e+002
    endloop
  endfacet
  facet normal -9.999967e-001  2.449471e-004  2.553910e-003
    outer loop
      vertex  1.369807e+001 -6.490057e+000  2.380000e+002
      vertex  1.369806e+001 -6.525097e+000  2.380000e+002
      vertex  1.397159e+001 -4.895218e+000  3.449450e+002
    endloop
  endfacet
  facet normal -9.862087e-001  1.655066e-001  0.000000e+000
    outer loop
      vertex  1.397159e+001 -4.895218e+000  3.449450e+002
      vertex  1.369806e+001 -6.525097e+000  2.380000e+002
      vertex  1.369806e+001 -6.525097e+000  3.449450e+002
    endloop
  endfacet
  facet normal -9.862809e-001 -1.650756e-001  0.000000e+000
    outer loop
      vertex  1.369783e+001 -7.455234e+000  3.449450e+002
      vertex  1.369783e+001 -7.455234e+000  2.380000e+002
      vertex  1.397073e+001 -9.085705e+000  3.449450e+002
    endloop
  endfacet
  facet normal -9.999968e-001  2.468597e-004  2.555487e-003
    outer loop
      vertex  1.397073e+001 -9.085705e+000  3.449450e+002
      vertex  1.369783e+001 -7.455234e+000  2.380000e+002
      vertex  1.369783e+001 -7.490057e+000  2.380000e+002
    endloop
  endfacet
  facet normal -9.852473e-001 -1.711369e-001 -3.924325e-005
    outer loop
      vertex  1.397073e+001 -9.085705e+000  3.449450e+002
      vertex  1.369783e+001 -7.490057e+000  2.380000e+002
      vertex  1.397988e+001 -9.112017e+000  2.299550e+002
    endloop
  endfacet
  facet normal -9.852268e-001 -1.712543e-001 -1.485353e-005
    outer loop
      vertex  1.397988e+001 -9.112017e+000  2.299550e+002
      vertex  1.369783e+001 -7.490057e+000  2.380000e+002
      vertex  1.369795e+001 -7.490056e+000  2.299550e+002
    endloop
  endfacet
  facet normal -8.785447e-001 -4.776601e-001  3.938609e-005
    outer loop
      vertex  1.397073e+001 -9.085705e+000  3.449450e+002
      vertex  1.397988e+001 -9.112017e+000  2.299550e+002
      vertex  1.476037e+001 -1.053807e+001  3.449450e+002
    endloop
  endfacet
  facet normal -8.762055e-001 -4.819376e-001 -2.953803e-005
    outer loop
      vertex  1.476037e+001 -1.053807e+001  3.449450e+002
      vertex  1.397988e+001 -9.112017e+000  2.299550e+002
      vertex  1.477329e+001 -1.055450e+001  2.299550e+002
    endloop
  endfacet
  facet normal -6.747694e-001 -7.380286e-001  2.966467e-005
    outer loop
      vertex  1.476037e+001 -1.053807e+001  3.449450e+002
      vertex  1.477329e+001 -1.055450e+001  2.299550e+002
      vertex  1.598045e+001 -1.165357e+001  3.449450e+002
    endloop
  endfacet
  facet normal -6.721948e-001 -7.403743e-001 -1.978349e-005
    outer loop
      vertex  1.598045e+001 -1.165357e+001  3.449450e+002
      vertex  1.477329e+001 -1.055450e+001  2.299550e+002
      vertex  1.599215e+001 -1.166112e+001  2.299550e+002
    endloop
  endfacet
  facet normal -3.972298e-001 -9.177192e-001  1.985086e-005
    outer loop
      vertex  1.598045e+001 -1.165357e+001  3.449450e+002
      vertex  1.599215e+001 -1.166112e+001  2.299550e+002
      vertex  1.749758e+001 -1.231025e+001  3.449450e+002
    endloop
  endfacet
  facet normal -3.953120e-001 -9.185469e-001 -9.928550e-006
    outer loop
      vertex  1.749758e+001 -1.231025e+001  3.449450e+002
      vertex  1.599215e+001 -1.166112e+001  2.299550e+002
      vertex  1.750434e+001 -1.231192e+001  2.299550e+002
    endloop
  endfacet
  facet normal -7.626801e-002 -9.970874e-001  9.970234e-006
    outer loop
      vertex  1.749758e+001 -1.231025e+001  3.449450e+002
      vertex  1.750434e+001 -1.231192e+001  2.299550e+002
      vertex  1.914591e+001 -1.243633e+001  3.449450e+002
    endloop
  endfacet
  facet normal -7.557362e-002 -9.971402e-001  -0.000000e+000
    outer loop
      vertex  1.914591e+001 -1.243633e+001  3.449450e+002
      vertex  1.750434e+001 -1.231192e+001  2.299550e+002
      vertex  1.914591e+001 -1.243633e+001  2.299550e+002
    endloop
  endfacet
  facet normal -2.429781e-004 -9.999999e-001  0.000000e+000
    outer loop
      vertex  2.739807e+001 -6.493385e+000  2.380000e+002
      vertex  1.369807e+001 -6.490057e+000  2.380000e+002
      vertex  2.739807e+001 -6.493385e+000  2.299550e+002
    endloop
  endfacet
  facet normal -2.429107e-004 -9.999999e-001  1.148188e-007
    outer loop
      vertex  2.739807e+001 -6.493385e+000  2.299550e+002
      vertex  1.369807e+001 -6.490057e+000  2.380000e+002
      vertex  1.369819e+001 -6.490057e+000  2.299550e+002
    endloop
  endfacet
  facet normal -1.000000e+000  2.441406e-004  0.000000e+000
    outer loop
      vertex  2.739807e+001 -6.493385e+000  2.299550e+002
      vertex  2.739783e+001 -7.493385e+000  2.299550e+002
      vertex  2.739807e+001 -6.493385e+000  2.380000e+002
    endloop
  endfacet
  facet normal -1.000000e+000  2.441406e-004  0.000000e+000
    outer loop
      vertex  2.739807e+001 -6.493385e+000  2.380000e+002
      vertex  2.739783e+001 -7.493385e+000  2.299550e+002
      vertex  2.739783e+001 -7.493385e+000  2.380000e+002
    endloop
  endfacet
  facet normal  2.430499e-004  9.999999e-001  0.000000e+000
    outer loop
      vertex  2.739783e+001 -7.493385e+000  2.299550e+002
      vertex  1.369795e+001 -7.490056e+000  2.299550e+002
      vertex  2.739783e+001 -7.493385e+000  2.380000e+002
    endloop
  endfacet
  facet normal  2.429781e-004  9.999999e-001  1.222199e-007
    outer loop
      vertex  2.739783e+001 -7.493385e+000  2.380000e+002
      vertex  1.369795e+001 -7.490056e+000  2.299550e+002
      vertex  1.369783e+001 -7.490057e+000  2.380000e+002
    endloop
  endfacet
  facet normal  0.000000e+000  -0.000000e+000 -1.000000e+000
    outer loop
      vertex  2.739783e+001 -7.493385e+000  2.299550e+002
      vertex  2.739807e+001 -6.493385e+000  2.299550e+002
      vertex  6.969801e+001 -6.749869e+000  2.299550e+002
    endloop
  endfacet
  facet normal  0.000000e+000  0.000000e+000 -1.000000e+000
    outer loop
      vertex  2.739783e+001 -7.493385e+000  2.299550e+002
      vertex  6.969801e+001 -6.749869e+000  2.299550e+002
      vertex  6.969789e+001 -7.224547e+000  2.299550e+002
    endloop
  endfacet
  facet normal  0.000000e+000  0.000000e+000 -1.000000e+000
    outer loop
      vertex  2.739783e+001 -7.493385e+000  2.299550e+002
      vertex  6.969789e+001 -7.224547e+000  2.299550e+002
      vertex  1.397988e+001 -9.112017e+000  2.299550e+002
    endloop
  endfacet
  facet normal  0.000000e+000  0.000000e+000 -1.000000e+000
    outer loop
      vertex  2.739783e+001 -7.493385e+000  2.299550e+002
      vertex  1.397988e+001 -9.112017e+000  2.299550e+002
      vertex  1.369795e+001 -7.490056e+000  2.299550e+002
    endloop
  endfacet
  facet normal  0.000000e+000  0.000000e+000 -1.000000e+000
    outer loop
      vertex  4.444006e+001 -1.000094e+001  2.299550e+002
      vertex  1.914591e+001 -1.243633e+001  2.299550e+002
      vertex  1.750434e+001 -1.231192e+001  2.299550e+002
    endloop
  endfacet
  facet normal  0.000000e+000  0.000000e+000 -1.000000e+000
    outer loop
      vertex  4.444006e+001 -1.000094e+001  2.299550e+002
      vertex  1.750434e+001 -1.231192e+001  2.299550e+002
      vertex  1.599215e+001 -1.166112e+001  2.299550e+002
    endloop
  endfacet
  facet normal  0.000000e+000  0.000000e+000 -1.000000e+000
    outer loop
      vertex  4.444006e+001 -1.000094e+001  2.299550e+002
      vertex  1.599215e+001 -1.166112e+001  2.299550e+002
      vertex  1.477329e+001 -1.055450e+001  2.299550e+002
    endloop
  endfacet
  facet normal  0.000000e+000  0.000000e+000 -1.000000e+000
    outer loop
      vertex  4.444006e+001 -1.000094e+001  2.299550e+002
      vertex  1.477329e+001 -1.055450e+001  2.299550e+002
      vertex  1.397988e+001 -9.112017e+000  2.299550e+002
    endloop
  endfacet
  facet normal  0.000000e+000  0.000000e+000 -1.000000e+000
    outer loop
      vertex  4.444006e+001 -1.000094e+001  2.299550e+002
      vertex  1.397988e+001 -9.112017e+000  2.299550e+002
      vertex  6.969789e+001 -7.224547e+000  2.299550e+002
    endloop
  endfacet
  facet normal  0.000000e+000  0.000000e+000 -1.000000e+000
    outer loop
      vertex  4.444017e+001 -3.981814e+000  2.299550e+002
      vertex  6.969801e+001 -6.749869e+000  2.299550e+002
      vertex  2.739807e+001 -6.493385e+000  2.299550e+002
    endloop
  endfacet
  facet normal  0.000000e+000  0.000000e+000 -1.000000e+000
    outer loop
      vertex  4.444017e+001 -3.981814e+000  2.299550e+002
      vertex  2.739807e+001 -6.493385e+000  2.299550e+002
      vertex  1.369819e+001 -6.490057e+000  2.299550e+002
    endloop
  endfacet
  facet normal  0.000000e+000  0.000000e+000 -1.000000e+000
    outer loop
      vertex  4.444017e+001 -3.981814e+000  2.299550e+002
      vertex  1.369819e+001 -6.490057e+000  2.299550e+002
      vertex  1.398081e+001 -4.868745e+000  2.299550e+002
    endloop
  endfacet
  facet normal  0.000000e+000  0.000000e+000 -1.000000e+000
    outer loop
      vertex  4.444017e+001 -3.981814e+000  2.299550e+002
      vertex  1.398081e+001 -4.868745e+000  2.299550e+002
      vertex  1.477450e+001 -3.427015e+000  2.299550e+002
    endloop
  endfacet
  facet normal  0.000000e+000  0.000000e+000 -1.000000e+000
    outer loop
      vertex  1.914614e+001 -1.546430e+000  2.299550e+002
      vertex  4.444017e+001 -3.981814e+000  2.299550e+002
      vertex  1.477450e+001 -3.427015e+000  2.299550e+002
    endloop
  endfacet
  facet normal  0.000000e+000  0.000000e+000 -9.999999e-001
    outer loop
      vertex  1.914614e+001 -1.546430e+000  2.299550e+002
      vertex  1.477450e+001 -3.427015e+000  2.299550e+002
      vertex  1.599327e+001 -2.321066e+000  2.299550e+002
    endloop
  endfacet
  facet normal  0.000000e+000  0.000000e+000 -1.000000e+000
    outer loop
      vertex  1.914614e+001 -1.546430e+000  2.299550e+002
      vertex  1.599327e+001 -2.321066e+000  2.299550e+002
      vertex  1.750508e+001 -1.670718e+000  2.299550e+002
    endloop
  endfacet
  facet normal -9.999999e-001  2.429974e-004  0.000000e+000
    outer loop
      vertex  1.369806e+001 -6.525097e+000  3.449450e+002
      vertex  1.369806e+001 -6.525097e+000  2.380000e+002
      vertex  1.369783e+001 -7.455234e+000  3.449450e+002
    endloop
  endfacet
  facet normal -9.999999e-001  2.429974e-004  0.000000e+000
    outer loop
      vertex  1.369783e+001 -7.455234e+000  3.449450e+002
      vertex  1.369806e+001 -6.525097e+000  2.380000e+002
      vertex  1.369783e+001 -7.455234e+000  2.380000e+002
    endloop
  endfacet
  facet normal  0.000000e+000  0.000000e+000 -9.999999e-001
    outer loop
      vertex  2.739783e+001 -7.493385e+000  2.380000e+002
      vertex  1.369783e+001 -7.490057e+000  2.380000e+002
      vertex  1.369783e+001 -7.455234e+000  2.380000e+002
    endloop
  endfacet
  facet normal  0.000000e+000  0.000000e+000 -1.000000e+000
    outer loop
      vertex  2.739783e+001 -7.493385e+000  2.380000e+002
      vertex  1.369783e+001 -7.455234e+000  2.380000e+002
      vertex  1.369806e+001 -6.525097e+000  2.380000e+002
    endloop
  endfacet
  facet normal  0.000000e+000  0.000000e+000 -1.000000e+000
    outer loop
      vertex  2.739783e+001 -7.493385e+000  2.380000e+002
      vertex  1.369806e+001 -6.525097e+000  2.380000e+002
      vertex  1.369807e+001 -6.490057e+000  2.380000e+002
    endloop
  endfacet
  facet normal  0.000000e+000  0.000000e+000 -1.000000e+000
    outer loop
      vertex  2.739783e+001 -7.493385e+000  2.380000e+002
      vertex  1.369807e+001 -6.490057e+000  2.380000e+002
      vertex  2.739807e+001 -6.493385e+000  2.380000e+002
    endloop
  endfacet
  facet normal  0.000000e+000  -0.000000e+000  1.000000e+000
    outer loop
      vertex  1.749827e+001 -1.672395e+000  3.449450e+002
      vertex  1.914591e+001 -1.243633e+001  3.449450e+002
      vertex  1.914614e+001 -1.546430e+000  3.449450e+002
    endloop
  endfacet
  facet normal  0.000000e+000  0.000000e+000  1.000000e+000
    outer loop
      vertex  1.914614e+001 -1.546430e+000  3.449450e+002
      vertex  1.914591e+001 -1.243633e+001  3.449450e+002
      vertex  4.444006e+001 -1.000094e+001  3.449450e+002
    endloop
  endfacet
  facet normal  0.000000e+000  -0.000000e+000  1.000000e+000
    outer loop
      vertex  1.914614e+001 -1.546430e+000  3.449450e+002
      vertex  4.444006e+001 -1.000094e+001  3.449450e+002
      vertex  4.444017e+001 -3.981814e+000  3.449450e+002
    endloop
  endfacet
  facet normal  0.000000e+000  0.000000e+000  1.000000e+000
    outer loop
      vertex  4.444017e+001 -3.981814e+000  3.449450e+002
      vertex  4.444006e+001 -1.000094e+001  3.449450e+002
      vertex  6.969789e+001 -7.224547e+000  3.449450e+002
    endloop
  endfacet
  facet normal  0.000000e+000  -0.000000e+000  1.000000e+000
    outer loop
      vertex  4.444017e+001 -3.981814e+000  3.449450e+002
      vertex  6.969789e+001 -7.224547e+000  3.449450e+002
      vertex  6.969801e+001 -6.749869e+000  3.449450e+002
    endloop
  endfacet
  facet normal  0.000000e+000  0.000000e+000  1.000000e+000
    outer loop
      vertex  1.914591e+001 -1.243633e+001  3.449450e+002
      vertex  1.749827e+001 -1.672395e+000  3.449450e+002
      vertex  1.749758e+001 -1.231025e+001  3.449450e+002
    endloop
  endfacet
  facet normal  0.000000e+000  -0.000000e+000  1.000000e+000
    outer loop
      vertex  1.749758e+001 -1.231025e+001  3.449450e+002
      vertex  1.749827e+001 -1.672395e+000  3.449450e+002
      vertex  1.598149e+001 -2.328665e+000  3.449450e+002
    endloop
  endfacet
  facet normal  0.000000e+000  0.000000e+000  1.000000e+000
    outer loop
      vertex  1.749758e+001 -1.231025e+001  3.449450e+002
      vertex  1.598149e+001 -2.328665e+000  3.449450e+002
      vertex  1.598045e+001 -1.165357e+001  3.449450e+002
    endloop
  endfacet
  facet normal  0.000000e+000  -0.000000e+000  1.000000e+000
    outer loop
      vertex  1.598045e+001 -1.165357e+001  3.449450e+002
      vertex  1.598149e+001 -2.328665e+000  3.449450e+002
      vertex  1.476150e+001 -3.443540e+000  3.449450e+002
    endloop
  endfacet
  facet normal  0.000000e+000  0.000000e+000  1.000000e+000
    outer loop
      vertex  1.598045e+001 -1.165357e+001  3.449450e+002
      vertex  1.476150e+001 -3.443540e+000  3.449450e+002
      vertex  1.476037e+001 -1.053807e+001  3.449450e+002
    endloop
  endfacet
  facet normal  0.000000e+000  -0.000000e+000  1.000000e+000
    outer loop
      vertex  1.476037e+001 -1.053807e+001  3.449450e+002
      vertex  1.476150e+001 -3.443540e+000  3.449450e+002
      vertex  1.397159e+001 -4.895218e+000  3.449450e+002
    endloop
  endfacet
  facet normal  0.000000e+000  0.000000e+000  1.000000e+000
    outer loop
      vertex  1.476037e+001 -1.053807e+001  3.449450e+002
      vertex  1.397159e+001 -4.895218e+000  3.449450e+002
      vertex  1.397073e+001 -9.085705e+000  3.449450e+002
    endloop
  endfacet
  facet normal  0.000000e+000  -0.000000e+000  1.000000e+000
    outer loop
      vertex  1.397073e+001 -9.085705e+000  3.449450e+002
      vertex  1.397159e+001 -4.895218e+000  3.449450e+002
      vertex  1.369806e+001 -6.525097e+000  3.449450e+002
    endloop
  endfacet
  facet normal  0.000000e+000  0.000000e+000  1.000000e+000
    outer loop
      vertex  1.397073e+001 -9.085705e+000  3.449450e+002
      vertex  1.369806e+001 -6.525097e+000  3.449450e+002
      vertex  1.369783e+001 -7.455234e+000  3.449450e+002
    endloop
  endfacet
endsolid CATIA STL
